<?xml version="1.0" encoding="utf-8"?>
<!-- Generator: Adobe Illustrator 17.0.0, SVG Export Plug-In . SVG Version: 6.00 Build 0)  -->
<!DOCTYPE svg PUBLIC "-//W3C//DTD SVG 1.1//EN" "http://www.w3.org/Graphics/SVG/1.1/DTD/svg11.dtd">
<svg version="1.1" id="Layer_1" xmlns="http://www.w3.org/2000/svg" xmlns:xlink="http://www.w3.org/1999/xlink" x="0px" y="0px"
	 width="1717.896px" height="241.761px" viewBox="0 0 1717.896 241.761" enable-background="new 0 0 1717.896 241.761"
	 xml:space="preserve">
<path fill="#FF2B06" d="M27.19,193.632l-7.567-10.905h7.211l4.05,6.009l4.006-6.009h6.988l-7.567,10.771l8.501,12.24h-7.21
	l-4.807-7.255l-4.807,7.255h-7.077L27.19,193.632z"/>
<path fill="#FFFFFF" d="M72.766,192.119H50.288v-4.763h22.477V192.119z M72.766,201.644H50.288v-4.763h22.477V201.644z"/>
<path fill="#FFFFFF" d="M89.989,179.167h-6.32v-5.208h6.32V179.167z M83.669,182.727h6.32v23.012h-6.32V182.727z"/>
<path fill="#FFFFFF" d="M94.083,182.727h6.009v3.205h0.133c1.603-2.581,4.362-3.828,7.033-3.828c6.721,0,8.412,3.783,8.412,9.48
	v14.154h-6.32v-12.997c0-3.783-1.113-5.652-4.05-5.652c-3.427,0-4.896,1.914-4.896,6.587v12.062h-6.321V182.727z"/>
<path fill="#FFFFFF" d="M136.009,202.801h-0.089c-1.469,2.492-4.05,3.56-6.988,3.56c-6.943,0-10.326-5.964-10.326-12.329
	c0-6.187,3.427-11.929,10.193-11.929c2.715,0,5.386,1.157,6.854,3.427h-0.044h0.089v-11.573h6.32v31.78h-6.009V202.801z
	 M130.49,186.867c-4.14,0-5.564,3.561-5.564,7.344c0,3.605,1.647,7.388,5.564,7.388c4.184,0,5.43-3.649,5.43-7.433
	C135.921,190.427,134.585,186.867,130.49,186.867z"/>
<path fill="#FFFFFF" d="M151.096,195.769c0.178,4.006,2.136,5.831,5.653,5.831c2.537,0,4.585-1.558,4.985-2.982h5.564
	c-1.781,5.43-5.564,7.745-10.771,7.745c-7.255,0-11.751-4.985-11.751-12.106c0-6.899,4.762-12.151,11.751-12.151
	c7.833,0,11.617,6.587,11.172,13.665H151.096z M161.378,191.763c-0.579-3.205-1.959-4.896-5.03-4.896
	c-4.006,0-5.163,3.116-5.252,4.896H161.378z"/>
<path fill="#FFFFFF" d="M170.545,182.727h6.009v2.938h0.089c1.513-2.448,4.006-3.561,6.854-3.561c7.21,0,10.46,5.831,10.46,12.374
	c0,6.143-3.383,11.884-10.104,11.884c-2.76,0-5.386-1.202-6.899-3.472h-0.089v10.949h-6.321V182.727z M187.637,194.3
	c0-3.65-1.469-7.433-5.519-7.433c-4.139,0-5.475,3.694-5.475,7.433s1.424,7.299,5.519,7.299
	C186.302,201.599,187.637,198.039,187.637,194.3z"/>
<path fill="#FFFFFF" d="M202.056,195.769c0.178,4.006,2.136,5.831,5.653,5.831c2.537,0,4.584-1.558,4.985-2.982h5.564
	c-1.781,5.43-5.564,7.745-10.771,7.745c-7.255,0-11.75-4.985-11.75-12.106c0-6.899,4.762-12.151,11.75-12.151
	c7.833,0,11.617,6.587,11.172,13.665H202.056z M212.338,191.763c-0.579-3.205-1.958-4.896-5.03-4.896
	c-4.006,0-5.163,3.116-5.252,4.896H212.338z"/>
<path fill="#FFFFFF" d="M221.505,182.727h6.009v3.205h0.133c1.603-2.581,4.362-3.828,7.033-3.828c6.721,0,8.412,3.783,8.412,9.48
	v14.154h-6.32v-12.997c0-3.783-1.113-5.652-4.05-5.652c-3.427,0-4.896,1.914-4.896,6.587v12.062h-6.321V182.727z"/>
<path fill="#FFFFFF" d="M263.431,202.801h-0.089c-1.469,2.492-4.05,3.56-6.988,3.56c-6.943,0-10.326-5.964-10.326-12.329
	c0-6.187,3.427-11.929,10.193-11.929c2.715,0,5.386,1.157,6.854,3.427h-0.044h0.089v-11.573h6.32v31.78h-6.009V202.801z
	 M257.912,186.867c-4.14,0-5.564,3.561-5.564,7.344c0,3.605,1.647,7.388,5.564,7.388c4.184,0,5.43-3.649,5.43-7.433
	C263.342,190.427,262.007,186.867,257.912,186.867z"/>
<path fill="#FFFFFF" d="M278.518,195.769c0.178,4.006,2.136,5.831,5.653,5.831c2.537,0,4.585-1.558,4.985-2.982h5.564
	c-1.781,5.43-5.564,7.745-10.771,7.745c-7.255,0-11.75-4.985-11.75-12.106c0-6.899,4.762-12.151,11.75-12.151
	c7.833,0,11.617,6.587,11.172,13.665H278.518z M288.8,191.763c-0.579-3.205-1.959-4.896-5.03-4.896
	c-4.006,0-5.163,3.116-5.252,4.896H288.8z"/>
<path fill="#FFFFFF" d="M297.967,182.727h6.009v3.205h0.133c1.602-2.581,4.362-3.828,7.033-3.828c6.721,0,8.412,3.783,8.412,9.48
	v14.154h-6.32v-12.997c0-3.783-1.113-5.652-4.05-5.652c-3.427,0-4.896,1.914-4.896,6.587v12.062h-6.321V182.727z"/>
<path fill="#FFFFFF" d="M331.481,182.727h4.629v4.229h-4.629v11.395c0,2.137,0.534,2.67,2.67,2.67c0.667,0,1.29-0.044,1.958-0.178
	v4.94c-1.068,0.178-2.448,0.223-3.694,0.223c-3.872,0-7.255-0.89-7.255-5.475v-13.576h-3.828v-4.229h3.828v-6.899h6.321V182.727z"/>
<path fill="#FFFFFF" d="M338.423,173.959h6.32v31.78h-6.32V173.959z"/>
<path fill="#FFFFFF" d="M360.188,208.632c-1.38,3.695-3.561,5.208-7.923,5.208c-1.291,0-2.582-0.089-3.872-0.223v-5.208
	c1.202,0.089,2.448,0.267,3.694,0.223c2.181-0.223,2.893-2.493,2.181-4.317l-8.101-21.587h6.766l5.207,15.757h0.089l5.03-15.757
	h6.543L360.188,208.632z"/>
<path fill="#FFFFFF" d="M393.702,182.104c7.255,0,11.929,4.807,11.929,12.151c0,7.299-4.674,12.106-11.929,12.106
	c-7.211,0-11.884-4.807-11.884-12.106C381.818,186.911,386.491,182.104,393.702,182.104z M393.702,201.599
	c4.317,0,5.608-3.694,5.608-7.344c0-3.694-1.29-7.389-5.608-7.389c-4.273,0-5.564,3.694-5.564,7.389
	C388.138,197.905,389.429,201.599,393.702,201.599z"/>
<path fill="#FFFFFF" d="M407.943,182.727h6.009V187h0.089c1.157-2.893,4.273-4.896,7.344-4.896c0.445,0,0.979,0.089,1.379,0.223
	v5.875c-0.579-0.133-1.513-0.222-2.27-0.222c-4.629,0-6.231,3.338-6.231,7.389v10.371h-6.321V182.727z"/>
<path fill="#FFFFFF" d="M446.487,204.27c0,3.783-1.335,10.192-11.929,10.192c-4.54,0-9.836-2.136-10.148-7.388h6.276
	c0.579,2.359,2.492,3.161,4.718,3.161c3.517,0,5.119-2.404,5.074-5.698v-3.027h-0.089c-1.38,2.404-4.14,3.561-6.899,3.561
	c-6.899,0-9.837-5.253-9.837-11.573c0-5.964,3.427-11.395,9.881-11.395c3.026,0,5.341,1.024,6.854,3.694h0.089v-3.071h6.009V204.27z
	 M440.478,193.944c0-3.739-1.291-7.077-5.386-7.077c-3.561,0-5.119,3.116-5.119,6.543c0,3.293,1.246,6.899,5.119,6.899
	C438.698,200.309,440.478,197.237,440.478,193.944z"/>
<path fill="#FFFFFF" d="M449.512,189.804c0.356-5.92,5.652-7.7,10.815-7.7c4.585,0,10.104,1.024,10.104,6.543v11.973
	c0,2.092,0.223,4.184,0.801,5.119h-6.41c-0.223-0.712-0.4-1.469-0.445-2.226c-2.003,2.092-4.941,2.849-7.745,2.849
	c-4.362,0-7.834-2.181-7.834-6.899c0-5.208,3.917-6.454,7.834-6.988c3.873-0.579,7.478-0.445,7.478-3.026
	c0-2.715-1.87-3.116-4.095-3.116c-2.403,0-3.961,0.979-4.184,3.472H449.512z M464.111,194.478c-1.068,0.935-3.294,0.979-5.253,1.335
	c-1.958,0.401-3.739,1.068-3.739,3.383c0,2.359,1.825,2.938,3.873,2.938c4.94,0,5.119-3.917,5.119-5.296V194.478z"/>
<path fill="#FFFFFF" d="M474.435,182.727h6.009v3.205h0.133c1.603-2.581,4.362-3.828,7.033-3.828c6.721,0,8.412,3.783,8.412,9.48
	v14.154h-6.32v-12.997c0-3.783-1.113-5.652-4.05-5.652c-3.427,0-4.896,1.914-4.896,6.587v12.062h-6.321V182.727z"/>
<path fill="#FFFFFF" d="M505.546,179.167h-6.32v-5.208h6.32V179.167z M499.225,182.727h6.32v23.012h-6.32V182.727z"/>
<path fill="#FFFFFF" d="M508.215,200.976l11.973-13.486h-11.082v-4.763h19.406v4.763l-11.973,13.486h12.818v4.763h-21.142V200.976z"
	/>
<path fill="#FFFFFF" d="M537.057,195.769c0.178,4.006,2.137,5.831,5.652,5.831c2.537,0,4.585-1.558,4.985-2.982h5.564
	c-1.78,5.43-5.564,7.745-10.772,7.745c-7.255,0-11.75-4.985-11.75-12.106c0-6.899,4.763-12.151,11.75-12.151
	c7.834,0,11.617,6.587,11.173,13.665H537.057z M547.338,191.763c-0.578-3.205-1.958-4.896-5.029-4.896
	c-4.006,0-5.163,3.116-5.252,4.896H547.338z"/>
<path fill="#FFFFFF" d="M572.931,202.801h-0.09c-1.469,2.492-4.05,3.56-6.987,3.56c-6.944,0-10.327-5.964-10.327-12.329
	c0-6.187,3.428-11.929,10.193-11.929c2.715,0,5.386,1.157,6.854,3.427h-0.045h0.089v-11.573h6.321v31.78h-6.009V202.801z
	 M567.411,186.867c-4.14,0-5.563,3.561-5.563,7.344c0,3.605,1.647,7.388,5.563,7.388c4.184,0,5.43-3.649,5.43-7.433
	C572.841,190.427,571.506,186.867,567.411,186.867z"/>
<path fill="#FFFFFF" d="M601.992,179.834h-9.524v-5.876h26.038v5.876h-9.525v25.905h-6.988V179.834z"/>
<path fill="#FFFFFF" d="M621.263,173.959h23.769v5.876h-16.78v6.81h15.4v5.43h-15.4v7.789h17.136v5.875h-24.124V173.959z"/>
<path fill="#FFFFFF" d="M648.323,173.959h13.709c8.234,0,14.421,5.164,14.421,15.712c0,9.213-4.718,16.068-14.421,16.068h-13.709
	V173.959z M655.312,199.863h6.232c4.05,0,7.923-2.492,7.923-9.525c0-6.41-2.226-10.504-9.17-10.504h-4.984V199.863z"/>
<path fill="#FFFFFF" d="M696.436,195.769c0.178,4.006,2.137,5.831,5.652,5.831c2.537,0,4.585-1.558,4.985-2.982h5.563
	c-1.78,5.43-5.563,7.745-10.771,7.745c-7.255,0-11.75-4.985-11.75-12.106c0-6.899,4.763-12.151,11.75-12.151
	c7.834,0,11.617,6.587,11.173,13.665H696.436z M706.717,191.763c-0.578-3.205-1.958-4.896-5.029-4.896
	c-4.006,0-5.163,3.116-5.252,4.896H706.717z"/>
<path fill="#FFFFFF" d="M727.725,205.739h-7.033l-7.878-23.012h6.632l4.852,15.712h0.089l4.852-15.712h6.276L727.725,205.739z"/>
<path fill="#FFFFFF" d="M741.566,195.769c0.178,4.006,2.137,5.831,5.652,5.831c2.537,0,4.585-1.558,4.985-2.982h5.564
	c-1.78,5.43-5.564,7.745-10.772,7.745c-7.255,0-11.75-4.985-11.75-12.106c0-6.899,4.763-12.151,11.75-12.151
	c7.834,0,11.617,6.587,11.172,13.665H741.566z M751.847,191.763c-0.578-3.205-1.958-4.896-5.029-4.896
	c-4.006,0-5.163,3.116-5.252,4.896H751.847z"/>
<path fill="#FFFFFF" d="M761.015,182.727h6.009v3.205h0.134c1.603-2.581,4.362-3.828,7.032-3.828c6.722,0,8.413,3.783,8.413,9.48
	v14.154h-6.32v-12.997c0-3.783-1.113-5.652-4.051-5.652c-3.428,0-4.897,1.914-4.897,6.587v12.062h-6.32V182.727z"/>
<path fill="#FFFFFF" d="M794.528,182.727h4.629v4.229h-4.629v11.395c0,2.137,0.534,2.67,2.671,2.67c0.668,0,1.291-0.044,1.958-0.178
	v4.94c-1.067,0.178-2.447,0.223-3.694,0.223c-3.872,0-7.255-0.89-7.255-5.475v-13.576h-3.828v-4.229h3.828v-6.899h6.32V182.727z"/>
<g>
	<g>
		<path fill="#FF2B06" d="M46.24,68.817H16.586V41.696h91.879v27.121H78.821v78.695H46.24V68.817z"/>
		<path fill="#FF2B06" d="M113.529,41.696h89.192v27.121h-56.59v13.186h56.59v25.203h-56.59v13.187h56.605v27.12h-89.207V41.696z"/>
		<path fill="#FF2B06" d="M208.208,41.696h53.501c35.266,0,47.729,26.085,47.729,52.753c0,32.466-17.191,53.063-54.096,53.063
			h-47.134V41.696z M240.808,120.393h12.75c20.309,0,23.278-16.456,23.278-26.396c0-6.656-2.086-25.179-25.652-25.179h-10.376
			V120.393z"/>
	</g>
	<g>
		<g>
			<path fill="#FF2B06" d="M356.283,106.735l-9.945-16.492l-9.698,16.492h-23.887l22.677-33.346l-21.836-31.896h23.895l8.849,15.767
				l9.103-15.767h23.888L357.5,73.389l22.677,33.346H356.283z"/>
		</g>
	</g>
</g>
<rect x="394.143" y="21.201" fill="none" width="1314.539" height="161.526"/>
<text transform="matrix(1 0 0 1 394.1432 147.3395)" fill="#FFFFFF" font-family="'Helvetica'" font-size="146.9047">UniversityOfDundee</text>
</svg>
